<?xml version="1.0"?>
<svg xmlns="http://www.w3.org/2000/svg" viewBox="0 0 512 512">
<defs>
<linearGradient id="ibg" x1="0" y1="0" x2="1" y2="1"><stop offset="0" stop-color="#0b2e6b"></stop><stop offset="0.55" stop-color="#1795c9"></stop><stop offset="1" stop-color="#2ad2c5"></stop></linearGradient>
<mask id="icut" maskUnits="userSpaceOnUse" x="0" y="0" width="512" height="512">
<rect width="512" height="512" fill="#fff"></rect>
<path d="M 245 154 L 245 340 M 245 154 L 305 154 A 86 86 0 0 1 391 240 L 391 254 A 86 86 0 0 1 305 340 L 245 340" fill="none" stroke="#000" stroke-width="80" stroke-linecap="round" stroke-linejoin="round"></path>
</mask>
</defs>
<rect width="512" height="512" rx="116" fill="url(#ibg)"></rect>
<g>
<path d="M 252 154 L 179 154 A 79 79 0 0 0 100 233 L 100 261 A 79 79 0 0 0 179 340 L 252 340" fill="none" stroke="#fff" stroke-width="50" stroke-linecap="round" mask="url(#icut)"></path>
<path d="M 245 154 L 245 340 M 245 154 L 305 154 A 86 86 0 0 1 391 240 L 391 254 A 86 86 0 0 1 305 340 L 245 340" fill="none" stroke="#fff" stroke-width="50" stroke-linecap="round" stroke-linejoin="round"></path>
<rect x="345" y="95" width="30" height="30" rx="5" fill="#fff"></rect>
<rect x="385" y="72" width="25" height="25" rx="4.5" fill="#fff" opacity="0.95"></rect>
<rect x="382" y="115" width="18" height="18" rx="3.6" fill="#fff" opacity="0.85"></rect>
<rect x="422" y="92" width="20" height="20" rx="4" fill="#fff" opacity="0.8"></rect>
<rect x="425" y="62" width="16" height="16" rx="3.2" fill="#fff" opacity="0.7"></rect>
<rect x="458" y="79" width="13" height="13" rx="2.6" fill="#fff" opacity="0.55"></rect>
</g>
</svg>